<svg xmlns="http://www.w3.org/2000/svg" viewBox="0 0 1000 300" width="1000" height="300" font-family="-apple-system,BlinkMacSystemFont,'SF Pro Display','Segoe UI',Roboto,Helvetica,Arial,sans-serif"><defs>
<filter id="b60" x="-100%" y="-100%" width="300%" height="300%"><feGaussianBlur stdDeviation="55"/></filter>
<filter id="b25" x="-100%" y="-100%" width="300%" height="300%"><feGaussianBlur stdDeviation="22"/></filter>
<filter id="b6" x="-50%" y="-50%" width="200%" height="200%"><feGaussianBlur stdDeviation="6"/></filter>
<filter id="sh" x="-20%" y="-20%" width="140%" height="170%"><feDropShadow dx="0" dy="14" stdDeviation="18" flood-color="#000" flood-opacity=".5"/></filter>
<linearGradient id="gf" x1="0" y1="0" x2="1" y2="1"><stop offset="0" stop-color="#fff" stop-opacity=".24"/><stop offset=".55" stop-color="#fff" stop-opacity=".06"/><stop offset="1" stop-color="#fff" stop-opacity=".13"/></linearGradient>
<linearGradient id="gs" x1="0" y1="0" x2="1" y2="1"><stop offset="0" stop-color="#fff" stop-opacity=".9"/><stop offset=".3" stop-color="#fff" stop-opacity=".12"/><stop offset=".7" stop-color="#fff" stop-opacity=".06"/><stop offset="1" stop-color="#fff" stop-opacity=".55"/></linearGradient>
<linearGradient id="gr" x1="0" y1="0" x2="1" y2="0"><stop offset="0" stop-color="#FF375F" stop-opacity=".55"/><stop offset=".5" stop-color="#fff" stop-opacity="0"/><stop offset="1" stop-color="#64D2FF" stop-opacity=".55"/></linearGradient>
<linearGradient id="sv" x1="0" y1="0" x2="0" y2="1"><stop offset="0" stop-color="#fff" stop-opacity=".38"/><stop offset="1" stop-color="#fff" stop-opacity="0"/></linearGradient>
</defs><clipPath id="cp"><rect width="1000" height="300" rx="32"/></clipPath><g clip-path="url(#cp)"><rect width="1000" height="300" fill="#07070d"/><circle cx="180" cy="60" r="120" fill="#FF375F" opacity="0.7" filter="url(#b60)"><animateTransform attributeName="transform" type="translate" values="0 0;40 20;-20 -20;0 0" dur="12s" begin="-0s" repeatCount="indefinite"/></circle><circle cx="520" cy="170" r="150" fill="#5E5CE6" opacity="0.8" filter="url(#b60)"><animateTransform attributeName="transform" type="translate" values="0 0;-40 20;20 -20;0 0" dur="14s" begin="-3s" repeatCount="indefinite"/></circle><circle cx="860" cy="250" r="120" fill="#64D2FF" opacity="0.6" filter="url(#b60)"><animateTransform attributeName="transform" type="translate" values="0 0;-30 -20;15 20;0 0" dur="11s" begin="-6s" repeatCount="indefinite"/></circle><circle cx="63" cy="60" r="34" fill="#FF9F0A" filter="url(#b25)" opacity=".7"><animate attributeName="opacity" values=".45;.9;.45" dur="3s" begin="-0.0s" repeatCount="indefinite"/></circle><rect x="31" y="30" width="122" height="110" rx="26" fill="url(#gf)" filter="url(#sh)"/><rect x="34" y="33" width="116" height="55" rx="23" fill="url(#sv)" opacity=".45"/><rect x="31" y="30" width="122" height="110" rx="26" fill="none" stroke="url(#gs)" stroke-width="1.5"/><rect x="35" y="34" width="114" height="102" rx="22" fill="none" stroke="url(#gr)" stroke-width="1"/><text x="47" y="62" font-size="9.5" letter-spacing="1.6" font-weight="600" fill="#fff" opacity=".55">LANGUAGE</text><text x="47" y="108" font-size="16" font-weight="700" fill="#fff">Swift</text><rect x="47" y="120" width="26" height="4" rx="2" fill="#FF9F0A"/><circle cx="199" cy="60" r="34" fill="#0A84FF" filter="url(#b25)" opacity=".7"><animate attributeName="opacity" values=".45;.9;.45" dur="4s" begin="-0.4s" repeatCount="indefinite"/></circle><rect x="167" y="30" width="122" height="110" rx="26" fill="url(#gf)" filter="url(#sh)"/><rect x="170" y="33" width="116" height="55" rx="23" fill="url(#sv)" opacity=".45"/><rect x="167" y="30" width="122" height="110" rx="26" fill="none" stroke="url(#gs)" stroke-width="1.5"/><rect x="171" y="34" width="114" height="102" rx="22" fill="none" stroke="url(#gr)" stroke-width="1"/><text x="183" y="62" font-size="9.5" letter-spacing="1.6" font-weight="600" fill="#fff" opacity=".55">UI</text><text x="183" y="108" font-size="16" font-weight="700" fill="#fff">SwiftUI</text><rect x="183" y="120" width="26" height="4" rx="2" fill="#0A84FF"/><circle cx="335" cy="60" r="34" fill="#64D2FF" filter="url(#b25)" opacity=".7"><animate attributeName="opacity" values=".45;.9;.45" dur="5s" begin="-0.8s" repeatCount="indefinite"/></circle><rect x="303" y="30" width="122" height="110" rx="26" fill="url(#gf)" filter="url(#sh)"/><rect x="306" y="33" width="116" height="55" rx="23" fill="url(#sv)" opacity=".45"/><rect x="303" y="30" width="122" height="110" rx="26" fill="none" stroke="url(#gs)" stroke-width="1.5"/><rect x="307" y="34" width="114" height="102" rx="22" fill="none" stroke="url(#gr)" stroke-width="1"/><text x="319" y="62" font-size="9.5" letter-spacing="1.6" font-weight="600" fill="#fff" opacity=".55">UI</text><text x="319" y="108" font-size="16" font-weight="700" fill="#fff">UIKit</text><rect x="319" y="120" width="26" height="4" rx="2" fill="#64D2FF"/><circle cx="471" cy="60" r="34" fill="#BF5AF2" filter="url(#b25)" opacity=".7"><animate attributeName="opacity" values=".45;.9;.45" dur="3s" begin="-1.2s" repeatCount="indefinite"/></circle><rect x="439" y="30" width="122" height="110" rx="26" fill="url(#gf)" filter="url(#sh)"/><rect x="442" y="33" width="116" height="55" rx="23" fill="url(#sv)" opacity=".45"/><rect x="439" y="30" width="122" height="110" rx="26" fill="none" stroke="url(#gs)" stroke-width="1.5"/><rect x="443" y="34" width="114" height="102" rx="22" fill="none" stroke="url(#gr)" stroke-width="1"/><text x="455" y="62" font-size="9.5" letter-spacing="1.6" font-weight="600" fill="#fff" opacity=".55">MOTION</text><text x="455" y="108" font-size="16" font-weight="700" fill="#fff">Animations</text><rect x="455" y="120" width="26" height="4" rx="2" fill="#BF5AF2"/><circle cx="607" cy="60" r="34" fill="#FF375F" filter="url(#b25)" opacity=".7"><animate attributeName="opacity" values=".45;.9;.45" dur="4s" begin="-1.6s" repeatCount="indefinite"/></circle><rect x="575" y="30" width="122" height="110" rx="26" fill="url(#gf)" filter="url(#sh)"/><rect x="578" y="33" width="116" height="55" rx="23" fill="url(#sv)" opacity=".45"/><rect x="575" y="30" width="122" height="110" rx="26" fill="none" stroke="url(#gs)" stroke-width="1.5"/><rect x="579" y="34" width="114" height="102" rx="22" fill="none" stroke="url(#gr)" stroke-width="1"/><text x="591" y="62" font-size="9.5" letter-spacing="1.6" font-weight="600" fill="#fff" opacity=".55">PATTERN</text><text x="591" y="108" font-size="16" font-weight="700" fill="#fff">MVVM</text><rect x="591" y="120" width="26" height="4" rx="2" fill="#FF375F"/><circle cx="743" cy="60" r="34" fill="#FF375F" filter="url(#b25)" opacity=".7"><animate attributeName="opacity" values=".45;.9;.45" dur="5s" begin="-2.0s" repeatCount="indefinite"/></circle><rect x="711" y="30" width="122" height="110" rx="26" fill="url(#gf)" filter="url(#sh)"/><rect x="714" y="33" width="116" height="55" rx="23" fill="url(#sv)" opacity=".45"/><rect x="711" y="30" width="122" height="110" rx="26" fill="none" stroke="url(#gs)" stroke-width="1.5"/><rect x="715" y="34" width="114" height="102" rx="22" fill="none" stroke="url(#gr)" stroke-width="1"/><text x="727" y="62" font-size="9.5" letter-spacing="1.6" font-weight="600" fill="#fff" opacity=".55">PATTERN</text><text x="727" y="108" font-size="16" font-weight="700" fill="#fff">Clean Arch</text><rect x="727" y="120" width="26" height="4" rx="2" fill="#FF375F"/><circle cx="879" cy="60" r="34" fill="#FF375F" filter="url(#b25)" opacity=".7"><animate attributeName="opacity" values=".45;.9;.45" dur="3s" begin="-2.4s" repeatCount="indefinite"/></circle><rect x="847" y="30" width="122" height="110" rx="26" fill="url(#gf)" filter="url(#sh)"/><rect x="850" y="33" width="116" height="55" rx="23" fill="url(#sv)" opacity=".45"/><rect x="847" y="30" width="122" height="110" rx="26" fill="none" stroke="url(#gs)" stroke-width="1.5"/><rect x="851" y="34" width="114" height="102" rx="22" fill="none" stroke="url(#gr)" stroke-width="1"/><text x="863" y="62" font-size="9.5" letter-spacing="1.6" font-weight="600" fill="#fff" opacity=".55">PRINCIPLES</text><text x="863" y="108" font-size="16" font-weight="700" fill="#fff">SOLID</text><rect x="863" y="120" width="26" height="4" rx="2" fill="#FF375F"/><circle cx="63" cy="184" r="34" fill="#30D158" filter="url(#b25)" opacity=".7"><animate attributeName="opacity" values=".45;.9;.45" dur="4s" begin="-2.8s" repeatCount="indefinite"/></circle><rect x="31" y="154" width="122" height="110" rx="26" fill="url(#gf)" filter="url(#sh)"/><rect x="34" y="157" width="116" height="55" rx="23" fill="url(#sv)" opacity=".45"/><rect x="31" y="154" width="122" height="110" rx="26" fill="none" stroke="url(#gs)" stroke-width="1.5"/><rect x="35" y="158" width="114" height="102" rx="22" fill="none" stroke="url(#gr)" stroke-width="1"/><text x="47" y="186" font-size="9.5" letter-spacing="1.6" font-weight="600" fill="#fff" opacity=".55">CONCURRENCY</text><text x="47" y="232" font-size="16" font-weight="700" fill="#fff">async/await</text><rect x="47" y="244" width="26" height="4" rx="2" fill="#30D158"/><circle cx="199" cy="184" r="34" fill="#30D158" filter="url(#b25)" opacity=".7"><animate attributeName="opacity" values=".45;.9;.45" dur="5s" begin="-3.2s" repeatCount="indefinite"/></circle><rect x="167" y="154" width="122" height="110" rx="26" fill="url(#gf)" filter="url(#sh)"/><rect x="170" y="157" width="116" height="55" rx="23" fill="url(#sv)" opacity=".45"/><rect x="167" y="154" width="122" height="110" rx="26" fill="none" stroke="url(#gs)" stroke-width="1.5"/><rect x="171" y="158" width="114" height="102" rx="22" fill="none" stroke="url(#gr)" stroke-width="1"/><text x="183" y="186" font-size="9.5" letter-spacing="1.6" font-weight="600" fill="#fff" opacity=".55">REACTIVE</text><text x="183" y="232" font-size="16" font-weight="700" fill="#fff">Combine</text><rect x="183" y="244" width="26" height="4" rx="2" fill="#30D158"/><circle cx="335" cy="184" r="34" fill="#FFD60A" filter="url(#b25)" opacity=".7"><animate attributeName="opacity" values=".45;.9;.45" dur="3s" begin="-3.6s" repeatCount="indefinite"/></circle><rect x="303" y="154" width="122" height="110" rx="26" fill="url(#gf)" filter="url(#sh)"/><rect x="306" y="157" width="116" height="55" rx="23" fill="url(#sv)" opacity=".45"/><rect x="303" y="154" width="122" height="110" rx="26" fill="none" stroke="url(#gs)" stroke-width="1.5"/><rect x="307" y="158" width="114" height="102" rx="22" fill="none" stroke="url(#gr)" stroke-width="1"/><text x="319" y="186" font-size="9.5" letter-spacing="1.6" font-weight="600" fill="#fff" opacity=".55">PERSISTENCE</text><text x="319" y="232" font-size="16" font-weight="700" fill="#fff">Core Data</text><rect x="319" y="244" width="26" height="4" rx="2" fill="#FFD60A"/><circle cx="471" cy="184" r="34" fill="#64D2FF" filter="url(#b25)" opacity=".7"><animate attributeName="opacity" values=".45;.9;.45" dur="4s" begin="-4.0s" repeatCount="indefinite"/></circle><rect x="439" y="154" width="122" height="110" rx="26" fill="url(#gf)" filter="url(#sh)"/><rect x="442" y="157" width="116" height="55" rx="23" fill="url(#sv)" opacity=".45"/><rect x="439" y="154" width="122" height="110" rx="26" fill="none" stroke="url(#gs)" stroke-width="1.5"/><rect x="443" y="158" width="114" height="102" rx="22" fill="none" stroke="url(#gr)" stroke-width="1"/><text x="455" y="186" font-size="9.5" letter-spacing="1.6" font-weight="600" fill="#fff" opacity=".55">NETWORKING</text><text x="455" y="232" font-size="16" font-weight="700" fill="#fff">URLSession</text><rect x="455" y="244" width="26" height="4" rx="2" fill="#64D2FF"/><circle cx="607" cy="184" r="34" fill="#0A84FF" filter="url(#b25)" opacity=".7"><animate attributeName="opacity" values=".45;.9;.45" dur="5s" begin="-4.4s" repeatCount="indefinite"/></circle><rect x="575" y="154" width="122" height="110" rx="26" fill="url(#gf)" filter="url(#sh)"/><rect x="578" y="157" width="116" height="55" rx="23" fill="url(#sv)" opacity=".45"/><rect x="575" y="154" width="122" height="110" rx="26" fill="none" stroke="url(#gs)" stroke-width="1.5"/><rect x="579" y="158" width="114" height="102" rx="22" fill="none" stroke="url(#gr)" stroke-width="1"/><text x="591" y="186" font-size="9.5" letter-spacing="1.6" font-weight="600" fill="#fff" opacity=".55">TOOLING</text><text x="591" y="232" font-size="16" font-weight="700" fill="#fff">Xcode</text><rect x="591" y="244" width="26" height="4" rx="2" fill="#0A84FF"/><circle cx="743" cy="184" r="34" fill="#FF9F0A" filter="url(#b25)" opacity=".7"><animate attributeName="opacity" values=".45;.9;.45" dur="3s" begin="-4.8s" repeatCount="indefinite"/></circle><rect x="711" y="154" width="122" height="110" rx="26" fill="url(#gf)" filter="url(#sh)"/><rect x="714" y="157" width="116" height="55" rx="23" fill="url(#sv)" opacity=".45"/><rect x="711" y="154" width="122" height="110" rx="26" fill="none" stroke="url(#gs)" stroke-width="1.5"/><rect x="715" y="158" width="114" height="102" rx="22" fill="none" stroke="url(#gr)" stroke-width="1"/><text x="727" y="186" font-size="9.5" letter-spacing="1.6" font-weight="600" fill="#fff" opacity=".55">PROFILING</text><text x="727" y="232" font-size="16" font-weight="700" fill="#fff">Instruments</text><rect x="727" y="244" width="26" height="4" rx="2" fill="#FF9F0A"/><circle cx="879" cy="184" r="34" fill="#0A84FF" filter="url(#b25)" opacity=".7"><animate attributeName="opacity" values=".45;.9;.45" dur="4s" begin="-5.2s" repeatCount="indefinite"/></circle><rect x="847" y="154" width="122" height="110" rx="26" fill="url(#gf)" filter="url(#sh)"/><rect x="850" y="157" width="116" height="55" rx="23" fill="url(#sv)" opacity=".45"/><rect x="847" y="154" width="122" height="110" rx="26" fill="none" stroke="url(#gs)" stroke-width="1.5"/><rect x="851" y="158" width="114" height="102" rx="22" fill="none" stroke="url(#gr)" stroke-width="1"/><text x="863" y="186" font-size="9.5" letter-spacing="1.6" font-weight="600" fill="#fff" opacity=".55">RELEASE</text><text x="863" y="232" font-size="16" font-weight="700" fill="#fff">TestFlight</text><rect x="863" y="244" width="26" height="4" rx="2" fill="#0A84FF"/></g></svg>