<svg xmlns="http://www.w3.org/2000/svg" viewBox="0 0 1000 254" width="1000" height="254" font-family="Roboto,-apple-system,BlinkMacSystemFont,'SF Pro Display','Segoe UI',Helvetica,Arial,sans-serif"><defs>
<filter id="b60" x="-100%" y="-100%" width="300%" height="300%"><feGaussianBlur stdDeviation="55"/></filter>
<filter id="b25" x="-100%" y="-100%" width="300%" height="300%"><feGaussianBlur stdDeviation="20"/></filter>
<linearGradient id="gf" x1="0" y1="0" x2="0" y2="1"><stop offset="0" stop-color="#fff" stop-opacity=".15"/><stop offset=".6" stop-color="#fff" stop-opacity=".05"/><stop offset="1" stop-color="#fff" stop-opacity=".08"/></linearGradient>
<linearGradient id="gs" x1="0" y1="0" x2="0" y2="1"><stop offset="0" stop-color="#fff" stop-opacity=".55"/><stop offset=".5" stop-color="#fff" stop-opacity=".12"/><stop offset="1" stop-color="#fff" stop-opacity=".24"/></linearGradient>
<linearGradient id="gr" x1="0" y1="0" x2="1" y2="0"><stop offset="0" stop-color="#4C8DFF" stop-opacity=".35"/><stop offset=".5" stop-color="#fff" stop-opacity="0"/><stop offset="1" stop-color="#8B7CF6" stop-opacity=".35"/></linearGradient>
<linearGradient id="sv" x1="0" y1="0" x2="0" y2="1"><stop offset="0" stop-color="#fff" stop-opacity=".25"/><stop offset="1" stop-color="#fff" stop-opacity="0"/></linearGradient>
</defs><clipPath id="cp"><rect width="1000" height="254" rx="32"/></clipPath><g clip-path="url(#cp)"><rect width="1000" height="254" fill="#0B0F17"/><circle cx="110" cy="30" r="150" fill="#4C8DFF" opacity="0.21" filter="url(#b60)"><animateTransform attributeName="transform" type="translate" values="0 0;30 20;-15 -20;0 0" dur="16s" begin="-0s" repeatCount="indefinite"/></circle><circle cx="890" cy="224" r="150" fill="#8B7CF6" opacity="0.19" filter="url(#b60)"><animateTransform attributeName="transform" type="translate" values="0 0;-30 -20;15 20;0 0" dur="18s" begin="-5s" repeatCount="indefinite"/></circle><circle cx="70" cy="74" r="28" fill="#4C8DFF" filter="url(#b25)" opacity=".4"/><rect x="32" y="32" width="176" height="190" rx="24" fill="url(#gf)"/><rect x="34" y="34" width="172" height="105" rx="22" fill="url(#sv)" opacity=".35"/><rect x="32.5" y="32.5" width="175" height="189" rx="23.5" fill="none" stroke="url(#gs)" stroke-width="1.2"/><circle cx="70" cy="74" r="16" fill="#fff" fill-opacity=".10" stroke="#fff" stroke-opacity=".35"/><text x="70" y="78.5" text-anchor="middle" font-size="11.5" font-weight="700" fill="#fff">01</text><text x="54" y="128" font-size="17" font-weight="700" fill="#fff">Understand</text><text x="54" y="156" font-size="13" fill="#fff" opacity=".7">Clarify goals,</text><text x="54" y="175" font-size="13" fill="#fff" opacity=".7">users and</text><text x="54" y="194" font-size="13" fill="#fff" opacity=".7">constraints.</text><circle cx="260" cy="74" r="28" fill="#38BDF8" filter="url(#b25)" opacity=".4"/><rect x="222" y="32" width="176" height="190" rx="24" fill="url(#gf)"/><rect x="224" y="34" width="172" height="105" rx="22" fill="url(#sv)" opacity=".35"/><rect x="222.5" y="32.5" width="175" height="189" rx="23.5" fill="none" stroke="url(#gs)" stroke-width="1.2"/><circle cx="260" cy="74" r="16" fill="#fff" fill-opacity=".10" stroke="#fff" stroke-opacity=".35"/><text x="260" y="78.5" text-anchor="middle" font-size="11.5" font-weight="700" fill="#fff">02</text><text x="244" y="128" font-size="17" font-weight="700" fill="#fff">Architect</text><text x="244" y="156" font-size="13" fill="#fff" opacity=".7">Shape a modular,</text><text x="244" y="175" font-size="13" fill="#fff" opacity=".7">testable and</text><text x="244" y="194" font-size="13" fill="#fff" opacity=".7">scalable structure.</text><circle cx="450" cy="74" r="28" fill="#2DD4BF" filter="url(#b25)" opacity=".4"/><rect x="412" y="32" width="176" height="190" rx="24" fill="url(#gf)"/><rect x="414" y="34" width="172" height="105" rx="22" fill="url(#sv)" opacity=".35"/><rect x="412.5" y="32.5" width="175" height="189" rx="23.5" fill="none" stroke="url(#gs)" stroke-width="1.2"/><circle cx="450" cy="74" r="16" fill="#fff" fill-opacity=".10" stroke="#fff" stroke-opacity=".35"/><text x="450" y="78.5" text-anchor="middle" font-size="11.5" font-weight="700" fill="#fff">03</text><text x="434" y="128" font-size="17" font-weight="700" fill="#fff">Build</text><text x="434" y="156" font-size="13" fill="#fff" opacity=".7">Write clean Swift</text><text x="434" y="175" font-size="13" fill="#fff" opacity=".7">with SwiftUI</text><text x="434" y="194" font-size="13" fill="#fff" opacity=".7">and UIKit.</text><circle cx="640" cy="74" r="28" fill="#8B7CF6" filter="url(#b25)" opacity=".4"/><rect x="602" y="32" width="176" height="190" rx="24" fill="url(#gf)"/><rect x="604" y="34" width="172" height="105" rx="22" fill="url(#sv)" opacity=".35"/><rect x="602.5" y="32.5" width="175" height="189" rx="23.5" fill="none" stroke="url(#gs)" stroke-width="1.2"/><circle cx="640" cy="74" r="16" fill="#fff" fill-opacity=".10" stroke="#fff" stroke-opacity=".35"/><text x="640" y="78.5" text-anchor="middle" font-size="11.5" font-weight="700" fill="#fff">04</text><text x="624" y="128" font-size="17" font-weight="700" fill="#fff">Verify</text><text x="624" y="156" font-size="13" fill="#fff" opacity=".7">Test, profile and</text><text x="624" y="175" font-size="13" fill="#fff" opacity=".7">tune for speed</text><text x="624" y="194" font-size="13" fill="#fff" opacity=".7">and stability.</text><circle cx="830" cy="74" r="28" fill="#C084FC" filter="url(#b25)" opacity=".4"/><rect x="792" y="32" width="176" height="190" rx="24" fill="url(#gf)"/><rect x="794" y="34" width="172" height="105" rx="22" fill="url(#sv)" opacity=".35"/><rect x="792.5" y="32.5" width="175" height="189" rx="23.5" fill="none" stroke="url(#gs)" stroke-width="1.2"/><circle cx="830" cy="74" r="16" fill="#fff" fill-opacity=".10" stroke="#fff" stroke-opacity=".35"/><text x="830" y="78.5" text-anchor="middle" font-size="11.5" font-weight="700" fill="#fff">05</text><text x="814" y="128" font-size="17" font-weight="700" fill="#fff">Ship</text><text x="814" y="156" font-size="13" fill="#fff" opacity=".7">Release, monitor</text><text x="814" y="175" font-size="13" fill="#fff" opacity=".7">and keep</text><text x="814" y="194" font-size="13" fill="#fff" opacity=".7">improving.</text></g><rect x=".5" y=".5" width="999" height="253" rx="31.5" fill="none" stroke="#fff" stroke-opacity=".10"/></svg>